<?xml version="1.0" standalone="no"?>
<!DOCTYPE svg PUBLIC "-//W3C//DTD SVG 20010904//EN"
 "http://www.w3.org/TR/2001/REC-SVG-20010904/DTD/svg10.dtd">
<svg version="1.0" xmlns="http://www.w3.org/2000/svg"
 width="115.000000pt" height="115.000000pt" viewBox="0 0 115.000000 115.000000"
 preserveAspectRatio="xMidYMid meet">
<metadata>
Created by potrace 1.14, written by Peter Selinger 2001-2017
</metadata>
<g transform="translate(0.000000,115.000000) scale(0.100000,-0.100000)"
fill="#000000" stroke="none">
<path d="M455 1016 c-42 -13 -125 -53 -125 -60 0 -3 19 -15 43 -29 23 -13 98
-56 167 -96 69 -40 144 -84 168 -97 l42 -25 0 145 0 144 -47 16 c-56 19 -190
20 -248 2z"/>
<path d="M785 740 c0 -132 1 -240 2 -240 1 0 35 20 75 43 40 24 94 56 121 71
55 31 57 44 24 126 -35 84 -83 147 -149 196 -33 24 -63 44 -67 44 -3 0 -6
-108 -6 -240z"/>
<path d="M244 882 c-62 -64 -101 -149 -115 -245 -6 -44 -8 -81 -5 -84 4 -5
342 184 399 222 16 11 5 20 -90 76 -149 88 -136 86 -189 31z"/>
<path d="M243 572 c-62 -37 -113 -72 -113 -80 0 -30 43 -131 78 -181 33 -49
140 -141 163 -141 5 0 9 104 9 235 0 182 -3 235 -12 234 -7 -1 -64 -31 -125
-67z"/>
<path d="M940 548 c-47 -27 -107 -63 -135 -78 -27 -15 -81 -46 -118 -67 l-68
-40 40 -26 c22 -15 43 -27 45 -27 2 0 39 -20 80 -45 42 -25 81 -45 85 -45 13
0 89 88 109 125 41 77 81 257 56 254 -5 0 -47 -23 -94 -51z"/>
<path d="M412 292 l3 -146 45 -14 c101 -30 281 -7 348 46 l24 19 -211 121
-212 121 3 -147z"/>
</g>
</svg>
